<?xml version="1.0" standalone="no"?>
<!DOCTYPE svg PUBLIC "-//W3C//DTD SVG 20010904//EN"
 "http://www.w3.org/TR/2001/REC-SVG-20010904/DTD/svg10.dtd">
<svg version="1.0" xmlns="http://www.w3.org/2000/svg"
 width="512.000000pt" height="512.000000pt" viewBox="0 0 512.000000 512.000000"
 preserveAspectRatio="xMidYMid meet">

<g transform="translate(0.000000,512.000000) scale(0.100000,-0.100000)"
fill="#000000" stroke="none">
<path d="M412 4895 c-58 -18 -115 -58 -147 -105 -56 -81 -55 -55 -55 -1053 l0
-920 130 -132 130 -132 0 -925 c0 -1055 -6 -984 85 -1075 89 -88 25 -83 1082
-83 l924 0 134 -130 133 -130 934 2 c927 3 933 3 979 24 58 27 116 85 143 143
21 46 21 52 24 985 l2 939 -130 131 -130 132 -2 939 -3 940 -23 42 c-30 58
-86 111 -141 137 -46 21 -54 21 -983 26 l-937 5 -129 128 -129 127 -924 -1
c-746 0 -932 -3 -967 -14z m3166 -1317 c17 -17 17 -2019 0 -2036 -17 -17
-2019 -17 -2036 0 -17 17 -17 2019 0 2036 17 17 2019 17 2036 0z"/>
</g>
</svg>
